<svg width="64" height="64" viewBox="0 0 64 64" fill="none" xmlns="http://www.w3.org/2000/svg">
<g clip-path="url(#clip0_53_1348)">
<path d="M1.1387 40.4784C0.384155 37.7305 0 34.8764 0 32.0017C0 18.8789 8.24168 6.88 20.5099 2.14828L22.1184 6.31124C11.5582 10.3851 4.46553 20.7085 4.46553 32.0017C4.46553 34.4789 4.79477 36.9321 5.443 39.2963L1.1387 40.4784Z" fill="#58D09E"/>
<path d="M20.2953 2.25047C22.9492 1.21283 25.7476 0.53244 28.6065 0.231955C41.6574 -1.13975 54.4521 5.80255 60.4403 17.5089L56.4682 19.5438C51.3128 9.46731 40.3046 3.49257 29.0732 4.67303C26.6096 4.93196 24.2043 5.51583 21.9208 6.40763L20.2953 2.25047Z" fill="#58D09E"/>
<path d="M46.6472 55.2685C55.3616 49.7137 60.2154 39.8557 59.3136 29.5475C58.994 25.895 57.9803 22.4066 56.3056 19.1861L60.2626 17.1219C62.2101 20.866 63.3898 24.9148 63.7611 29.1584C64.8088 41.1339 59.1724 52.5821 49.0473 59.0351L46.6472 55.2685Z" fill="black"/>
<path d="M22.5028 25.3992C25.0922 25.3992 27.2015 26.78 28.2854 29.1887L28.3711 29.3772L32.7199 27.9004L32.6274 27.6777C30.9434 23.5764 27.0643 21.0272 22.5028 21.0272C19.2959 21.0272 16.6894 22.0552 14.5355 24.1657C12.3953 26.2627 11.3115 28.9009 11.3115 32.0085C11.3115 35.0888 12.3953 37.7133 14.5355 39.8103C16.6894 41.9209 19.2959 42.9488 22.5028 42.9488C27.0643 42.9488 30.9434 40.3996 32.6274 36.3017L32.7199 36.0791L28.3642 34.5988L28.2819 34.7941C27.3112 37.1617 25.1506 38.5768 22.5028 38.5768C20.6987 38.5768 19.1759 37.9464 17.9686 36.706C16.7476 35.4485 16.1303 33.8691 16.1303 32.012C16.1303 30.1412 16.7339 28.5925 17.9686 27.2768C19.1724 26.0297 20.6987 25.3992 22.5028 25.3992Z" fill="black"/>
<path d="M49.7413 21.4316L43.5438 37.1137L37.3051 21.4316H32.2017L40.9509 42.8357L34.7259 57.932L39.1881 58.8195L54.5635 21.4316H49.7413Z" fill="black"/>
<path d="M35.5245 55.9859L34.4373 58.6173C34.2212 59.1381 33.7273 59.4909 33.1717 59.5149C32.8048 59.5287 32.4344 59.5389 32.0605 59.5389C19.2641 59.5321 7.94257 50.5107 5.13704 38.08L0.78125 39.0633C2.35551 46.0359 6.30659 52.3643 11.9073 56.8871C17.5733 61.4611 24.7105 63.9863 32.0125 64C32.0228 64 32.0776 64 32.0776 64C32.5064 64 32.9316 63.9897 33.3569 63.9727C35.648 63.8767 37.6956 62.4411 38.5701 60.3133L39.99 56.8733L35.5245 55.9859Z" fill="black"/>
</g>
<defs>
<clipPath id="clip0_53_1348">
<rect width="64" height="64" fill="white"/>
</clipPath>
</defs>
</svg>
