<svg width="68" height="64" viewBox="0 0 68 64" fill="none" xmlns="http://www.w3.org/2000/svg">
<path fill-rule="evenodd" clip-rule="evenodd" d="M39.255 1.06171C38.8033 1.06171 38.3837 1.1588 37.9965 1.28824C38.8194 1.83839 39.2712 2.56654 39.4971 3.39177C39.5132 3.50503 39.5455 3.58594 39.5616 3.6992C39.5778 3.79629 39.5939 3.89338 39.5939 3.99046C39.6584 5.41439 39.2228 5.59238 38.9162 6.43379C38.4483 7.51792 38.5774 8.68294 39.1421 9.62144C39.1905 9.73471 39.255 9.86415 39.3357 9.97742C38.7226 5.88364 42.1271 5.26876 42.7563 3.99046C42.8047 2.87398 41.885 2.12965 41.159 1.61186C40.4652 1.19115 39.8359 1.06171 39.255 1.06171ZM44.386 1.98402C44.3214 2.35618 44.3698 2.2591 44.3537 2.45327C44.3376 2.58272 44.3376 2.74453 44.3215 2.87397C44.2892 3.00342 44.2569 3.13287 44.2085 3.26232C44.1763 3.39177 44.1279 3.52122 44.0795 3.65066C44.0149 3.78011 43.9665 3.89338 43.902 4.02282C43.8536 4.08757 43.8213 4.15227 43.7729 4.217C43.7407 4.26554 43.7083 4.31408 43.6761 4.36263C43.5954 4.4759 43.5147 4.58916 43.4341 4.68624C43.3372 4.78333 43.2566 4.89659 43.1436 4.97751V4.99371C43.0468 5.07461 42.95 5.1717 42.8371 5.2526C42.4982 5.51149 42.111 5.70567 41.756 5.94838C41.6431 6.02928 41.5301 6.09401 41.4333 6.1911C41.3204 6.272 41.2236 6.3529 41.1268 6.44999C41.0138 6.54708 40.9331 6.64416 40.8363 6.75743C40.7556 6.85452 40.6588 6.96778 40.5943 7.08105C40.5136 7.19431 40.4329 7.30758 40.3684 7.42085C40.3038 7.55029 40.2555 7.66357 40.1909 7.79301C40.1425 7.92245 40.0941 8.03573 40.0618 8.16517C40.0134 8.3108 39.9812 8.44025 39.9489 8.5697C39.9327 8.63445 39.9327 8.71533 39.9166 8.78005C39.9005 8.8448 39.9005 8.9095 39.8844 8.97423C39.8844 9.10367 39.8683 9.2493 39.8683 9.37875C39.8683 9.47583 39.8683 9.57292 39.8844 9.67001C39.8844 9.79945 39.9006 9.9289 39.9328 10.0745C39.949 10.204 39.9812 10.3334 40.0135 10.4629C40.0619 10.5923 40.0942 10.7218 40.1426 10.8512C40.1748 10.9321 40.2232 11.013 40.2555 11.0777L36.5445 9.63764C35.9152 9.45965 35.3021 9.29784 34.6728 9.15221C34.334 9.07131 33.9951 8.9904 33.6563 8.9095C32.6882 8.71533 31.704 8.5697 30.7197 8.47262C30.6875 8.47262 30.6713 8.45641 30.639 8.45641C29.6709 8.35933 28.719 8.31079 27.7509 8.31079C27.0409 8.31079 26.331 8.34312 25.6372 8.39169C24.6529 8.45644 23.6687 8.58586 22.6845 8.74767C22.4424 8.78001 22.2004 8.82858 21.9584 8.87712C21.4582 8.9742 20.9741 9.08747 20.5062 9.20074C20.2642 9.26549 20.0222 9.33019 19.7801 9.39491C19.5381 9.49199 19.3122 9.60526 19.0863 9.70235C18.9089 9.78325 18.7314 9.86416 18.5539 9.94506C18.5216 9.96127 18.4893 9.96127 18.4732 9.9774C18.3119 10.0583 18.1666 10.123 18.0214 10.2039C17.973 10.2201 17.9408 10.2363 17.9085 10.2525C17.731 10.3334 17.5535 10.4305 17.4083 10.5114C17.2954 10.5599 17.1824 10.6246 17.0856 10.6732C17.0372 10.7055 16.9727 10.7379 16.9404 10.7541C16.7952 10.835 16.65 10.9159 16.5209 10.9968C16.3757 11.0777 16.2466 11.1586 16.1336 11.2395C16.0207 11.3204 15.9077 11.3851 15.8109 11.466C15.7948 11.4822 15.7787 11.4822 15.7625 11.4984C15.6657 11.5631 15.5528 11.644 15.456 11.7249C15.456 11.7249 15.4398 11.7411 15.4237 11.7573C15.343 11.822 15.2624 11.8867 15.1817 11.9514C15.1494 11.9676 15.1171 12 15.0849 12.0162C15.0042 12.0809 14.9235 12.1618 14.8429 12.2265C14.8267 12.2589 14.7945 12.2751 14.7783 12.2913C14.6815 12.3884 14.5847 12.4693 14.4879 12.5664C14.4717 12.5664 14.4717 12.5826 14.4556 12.5987C14.3588 12.6796 14.262 12.7767 14.1652 12.8738C14.149 12.89 14.149 12.9061 14.1329 12.9061C14.0523 12.987 13.9716 13.0679 13.8909 13.165C13.8587 13.1973 13.8102 13.2297 13.778 13.2621C13.6973 13.3592 13.6005 13.4563 13.5037 13.5533C13.4875 13.5857 13.4553 13.6019 13.4391 13.6342C13.31 13.7637 13.1971 13.8931 13.068 14.0226C13.0518 14.0388 13.0358 14.0549 13.0196 14.0711C12.7614 14.3462 12.4871 14.6213 12.1967 14.864C11.9063 15.1229 11.5997 15.3656 11.2931 15.576C10.9704 15.8025 10.6639 15.9967 10.325 16.1908C10.0023 16.3688 9.66351 16.5306 9.30854 16.6763C8.9697 16.8219 8.61473 16.9514 8.25976 17.0646C7.58209 17.2102 6.88828 17.4853 6.29129 17.5339C6.16221 17.5339 6.01699 17.5662 5.88791 17.5824C5.7427 17.6147 5.61362 17.6472 5.48454 17.6795C5.35546 17.728 5.22637 17.7766 5.09729 17.8251C4.96822 17.8737 4.83914 17.9384 4.71006 18.0031C4.59711 18.084 4.46803 18.1487 4.35508 18.2296C4.24214 18.3105 4.12919 18.4076 4.03238 18.5047C3.91944 18.5856 3.80649 18.6989 3.70968 18.796C3.61287 18.9092 3.51606 19.0063 3.43539 19.1196C3.35471 19.249 3.2579 19.3623 3.19336 19.4918C3.11269 19.605 3.03201 19.7345 2.96747 19.8639C2.9029 20.0096 2.83839 20.139 2.78998 20.2846C2.74158 20.4141 2.69317 20.5597 2.64477 20.7053C2.61252 20.8348 2.5802 20.9642 2.5641 21.0937C2.5641 21.1099 2.54794 21.126 2.54794 21.1422C2.51569 21.2878 2.51569 21.482 2.49953 21.5791C2.48337 21.6924 2.46729 21.7895 2.46729 21.9027C2.46729 21.9675 2.46729 22.0484 2.48345 22.1131C2.4996 22.2263 2.51569 22.3234 2.54801 22.4205C2.58026 22.5176 2.61258 22.6147 2.66095 22.7118V22.728C2.70936 22.8251 2.7739 22.9222 2.83844 23.0192C2.903 23.1163 2.96752 23.2134 3.0482 23.3105C3.12887 23.3914 3.22568 23.4885 3.32249 23.5694C3.4193 23.6665 3.51611 23.7474 3.62905 23.8283C4.0163 24.1681 4.11311 24.2814 4.61329 24.5402C4.69397 24.5888 4.77465 24.6212 4.87146 24.6697C4.88762 24.6697 4.9037 24.6859 4.91986 24.6859C4.91986 24.7182 4.91986 24.7344 4.93603 24.7668C4.95219 24.8963 4.98443 25.0257 5.0167 25.1552C5.04894 25.3008 5.09738 25.4302 5.14579 25.5435C5.19419 25.6406 5.22646 25.7377 5.27486 25.8348C5.29102 25.8671 5.30711 25.8995 5.32327 25.9157C5.38784 26.0451 5.45235 26.1584 5.51688 26.2716C5.59756 26.3849 5.67824 26.4982 5.75891 26.6114C5.83958 26.7085 5.9364 26.8218 6.03321 26.9189C6.13002 27.016 6.22683 27.0969 6.33978 27.1939C6.33978 27.1939 6.35594 27.2102 6.37202 27.2102C6.46883 27.2911 6.56564 27.372 6.66245 27.4367C6.7754 27.5176 6.88834 27.5823 7.01742 27.6471C7.13037 27.7118 7.25945 27.7765 7.38853 27.8251C7.48534 27.8736 7.59828 27.906 7.71123 27.9383C7.72739 27.9545 7.74347 27.9545 7.77579 27.9707C7.84036 27.9869 7.921 28.003 7.98555 28.0192C7.93714 28.893 7.92098 29.7182 8.05011 30.0095C8.19532 30.3331 8.90527 29.346 9.61521 28.2134C9.5184 29.3299 9.45386 30.6405 9.61521 31.0289C9.79269 31.4334 10.7608 30.1713 11.5998 28.7797C23.0396 26.126 33.4789 34.0547 34.5761 45.2519C34.3663 43.5044 32.2204 42.5335 31.2362 42.7762C30.7521 43.9736 29.9292 45.5108 28.6061 46.4655C28.7191 45.3976 28.6707 44.2973 28.4448 43.2293C28.0898 44.718 27.396 46.1095 26.444 47.3069C24.9112 47.4202 23.3784 46.6759 22.5716 45.5594C22.5071 45.5108 22.491 45.4137 22.4426 45.349C22.3941 45.2357 22.3457 45.1225 22.3135 45.0092C22.2651 44.896 22.2328 44.7827 22.2167 44.6694C22.2005 44.5561 22.2005 44.4429 22.2005 44.3134C22.2005 44.2325 22.2005 44.1516 22.2005 44.0707C22.2167 43.9575 22.2489 43.8442 22.2812 43.7309C22.3134 43.6177 22.3457 43.5044 22.3941 43.3911C22.4587 43.2779 22.5071 43.1646 22.5877 43.0513C22.862 42.2746 22.862 41.6436 22.3619 41.2714C22.265 41.2067 22.1682 41.1581 22.0553 41.1096C21.9907 41.0934 21.9101 41.0611 21.8455 41.0449C21.7971 41.0287 21.7649 41.0125 21.7165 40.9963C21.6035 40.964 21.4906 40.9316 21.3776 40.9154C21.2647 40.8831 21.1517 40.8669 21.0388 40.8669C20.9258 40.8506 20.7968 40.8345 20.6838 40.8345C20.6031 40.8345 20.5225 40.8507 20.4418 40.8507C20.3127 40.8507 20.1998 40.867 20.0868 40.8993C19.9739 40.9155 19.8609 40.9316 19.748 40.964C19.635 40.9964 19.5221 41.0288 19.4091 41.0773C19.2962 41.1258 19.1994 41.1744 19.0864 41.2229C18.9896 41.2715 18.8928 41.3362 18.7799 41.3847C15.0204 43.8442 17.2632 49.6047 19.8287 51.2713C18.8605 51.4493 17.8763 51.6596 17.602 51.87C17.5859 51.8862 17.5698 51.9023 17.5698 51.9023C18.2636 52.323 18.9897 52.679 19.748 52.9865C20.7806 53.3263 21.8778 53.6337 22.3619 53.7631V53.7793C23.7011 54.0544 25.0564 54.1515 26.4279 54.0706C33.5757 53.569 39.4328 48.116 40.4977 40.9317C40.5299 41.0773 40.5622 41.2067 40.5945 41.3524C40.6429 41.6436 40.7074 41.9511 40.7397 42.2585V42.2747C40.7719 42.4203 40.7881 42.566 40.8042 42.6954V42.7602C40.8204 42.9058 40.8365 43.0514 40.8365 43.1809C40.8526 43.3589 40.8687 43.5369 40.8687 43.7149V43.9737C40.8687 44.0547 40.8849 44.1517 40.8849 44.2326C40.8849 44.3297 40.8687 44.4268 40.8687 44.5239V44.7504C40.8687 44.8637 40.8526 44.9608 40.8526 45.074C40.8526 45.1388 40.8526 45.2035 40.8364 45.2844C40.8364 45.3977 40.8203 45.5109 40.8203 45.6404C40.8041 45.6889 40.8041 45.7375 40.8041 45.786C40.7879 45.9155 40.7718 46.0287 40.7557 46.1582C40.7557 46.2067 40.7557 46.2553 40.7395 46.3038C40.7233 46.4656 40.6911 46.6112 40.675 46.7731V46.7893V46.8055C40.6427 46.9511 40.6104 47.1129 40.5781 47.2585V47.3071C40.5459 47.4527 40.5136 47.5983 40.4813 47.744C40.4813 47.7602 40.4652 47.7925 40.4652 47.8087C40.4329 47.9543 40.4006 48.1 40.3522 48.2456V48.2942C40.3038 48.456 40.2554 48.6016 40.2231 48.7472C40.207 48.7634 40.207 48.7796 40.207 48.7796C40.1586 48.9414 40.1102 49.1032 40.0618 49.265C39.9972 49.4268 39.9488 49.5724 39.8843 49.7342C39.8197 49.896 39.7713 50.0578 39.7068 50.2035C39.6422 50.3653 39.5777 50.5109 39.5132 50.6727H39.497C39.4324 50.8184 39.3679 50.9802 39.2872 51.1258C39.2711 51.1743 39.255 51.2067 39.2388 51.2391C39.2227 51.2553 39.2227 51.2714 39.2066 51.2876C38.1578 53.4073 36.6089 55.2681 34.6727 56.7244C34.5436 56.8053 34.4145 56.9024 34.2854 56.9995C34.2532 57.0318 34.2047 57.048 34.1725 57.0804C34.0595 57.1613 33.9466 57.2422 33.8175 57.3231L33.8659 57.4202H33.8821C34.1079 57.3879 34.3338 57.3554 34.5597 57.3231H34.5759C34.9954 57.2584 35.4149 57.1775 35.8344 57.0966C35.9474 57.0803 36.0765 57.048 36.1894 57.0157C36.2701 56.9994 36.3346 56.9833 36.4153 56.9671C36.5282 56.9509 36.6412 56.9186 36.7541 56.9024C36.8509 56.87 36.9477 56.8538 37.0446 56.8215C38.6581 56.4331 40.2232 55.8991 41.7237 55.2681C39.1582 58.7794 35.7215 61.611 31.7039 63.4718C33.5594 63.3424 35.4149 63.035 37.2059 62.5172C43.7083 60.5916 49.1781 56.2066 52.4535 50.3005C51.792 54.0383 50.3075 57.5981 48.1132 60.7049C49.6783 59.6693 51.1143 58.4719 52.4212 57.1127C56.0355 53.3264 58.4073 48.5206 59.2141 43.3589C59.7627 45.9155 59.924 48.553 59.682 51.1581C71.3315 34.8639 60.6501 17.971 56.1807 13.5212C56.1645 13.4889 56.1485 13.4726 56.1485 13.4403C56.1323 13.4565 56.1323 13.4565 56.1323 13.4726C56.1323 13.4564 56.1323 13.4564 56.1161 13.4403C56.1161 13.6345 56.1 13.8286 56.0839 14.0228C56.0355 14.395 55.9871 14.7509 55.9225 15.1069C55.8419 15.4629 55.745 15.8189 55.6482 16.1749C55.5353 16.5147 55.4062 16.8706 55.261 17.2105C55.1158 17.5341 54.9544 17.8739 54.7769 18.1975C54.5994 18.5049 54.4058 18.8286 54.1961 19.1198C53.9863 19.4272 53.7604 19.7185 53.5345 19.9936C53.2925 20.2848 53.0344 20.5437 52.7762 20.8026C52.6148 20.9483 52.4696 21.0777 52.3083 21.2071C52.1792 21.3204 52.0662 21.4175 51.9372 21.5308C51.6467 21.7573 51.3563 21.9677 51.0336 22.1618C50.727 22.356 50.4044 22.5502 50.0816 22.712C49.7428 22.8738 49.404 23.0194 49.0651 23.165C48.7263 23.2945 48.3713 23.4078 48.0163 23.5049C47.6614 23.6019 47.2903 23.6828 46.9353 23.7476C46.5642 23.8123 46.1931 23.8446 45.8381 23.877C45.58 23.8932 45.3218 23.9094 45.0636 23.9094C44.6925 23.9094 44.3214 23.877 43.9665 23.8446C43.5954 23.8123 43.2243 23.7637 42.8693 23.6828C42.4982 23.618 42.1432 23.521 41.7882 23.4077H41.7721C42.127 23.3754 42.482 23.343 42.837 23.2783C43.2081 23.2135 43.5631 23.1326 43.918 23.0355C44.273 22.9385 44.628 22.8252 44.9668 22.6957C45.3218 22.5663 45.6606 22.4045 45.9833 22.2427C46.3222 22.0809 46.6287 21.9029 46.9514 21.7087C47.258 21.4984 47.5646 21.288 47.855 21.0615C48.1454 20.8349 48.4197 20.5922 48.6779 20.3333C48.9522 20.0906 49.1942 19.8155 49.4362 19.5405C49.6782 19.2492 49.9041 18.9579 50.1139 18.6667C50.1461 18.6181 50.1785 18.5534 50.2107 18.5049C50.3721 18.246 50.5334 17.9871 50.6786 17.7282C50.8561 17.4046 51.0175 17.0809 51.1627 16.7412C51.3079 16.4014 51.437 16.0615 51.5499 15.7056C51.6628 15.3658 51.7435 15.0098 51.8242 14.6538C51.8888 14.2816 51.9533 13.9257 51.9856 13.5697C52.0178 13.1975 52.0501 12.8254 52.0501 12.4694C52.0501 12.2105 52.0339 11.9516 52.0179 11.6927C51.9856 11.3205 51.9372 10.9645 51.8888 10.6086C51.8242 10.2364 51.7436 9.88043 51.6468 9.52444C51.5338 9.18464 51.4209 8.82866 51.2918 8.48886C51.1627 8.14906 51.0014 7.80926 50.84 7.48564C50.6625 7.16202 50.485 6.8384 50.2914 6.53096C50.0817 6.22353 49.8719 5.93227 49.646 5.64101C49.404 5.36593 49.162 5.09086 48.9038 4.81578C48.7747 4.68634 48.6295 4.54071 48.4843 4.41126C47.7582 3.84492 46.9999 3.31095 46.2415 2.82552C46.1286 2.76077 46.0318 2.71225 45.9188 2.66371C45.3864 2.32391 44.8862 2.14583 44.386 1.98402Z" fill="#E0234E"/>
</svg>
