<svg width="64" height="64" viewBox="0 0 64 64" fill="none" xmlns="http://www.w3.org/2000/svg">
<path fill-rule="evenodd" clip-rule="evenodd" d="M11.2627 55.604L9.52674 9.37601C9.47207 7.84935 10.6454 6.55735 12.1694 6.46401L42.9801 4.53735L45.3334 5.33335L48.3934 4.19868L51.4814 4.00535C53.0321 3.90668 54.3694 5.08401 54.4694 6.63468C54.4734 6.69468 54.4747 6.75601 54.4747 6.81735V57.1867C54.4734 58.7427 53.2107 60.0027 51.6547 60.0013C51.6134 60.0013 51.5721 60 51.5321 59.9987L13.9507 58.3107C12.4867 58.2453 11.3187 57.0693 11.2627 55.604Z" fill="#FF4081"/>
<path fill-rule="evenodd" clip-rule="evenodd" d="M48.3904 4.19867L42.9811 4.53467L42.7184 10.8827C42.7091 11.1147 42.8891 11.3093 43.1211 11.32C43.2184 11.324 43.3131 11.2947 43.3904 11.236L45.8544 9.36534L47.9371 11.0067C48.1184 11.1507 48.3838 11.12 48.5264 10.9387C48.5878 10.86 48.6198 10.7627 48.6171 10.6627L48.3931 4.2L48.3904 4.19867ZM44.1798 25.4507C43.1918 26.22 35.8104 26.744 35.8104 25.6493C35.9678 21.4693 34.0971 21.2867 33.0558 21.2867C32.0704 21.2867 30.4064 21.584 30.4064 23.824C30.4064 26.1053 32.8371 27.3933 35.6904 28.9053C39.7424 31.0533 44.6504 33.6547 44.6504 40.1947C44.6504 46.4667 39.5544 49.928 33.0584 49.928C26.3531 49.928 20.4918 47.2147 21.1531 37.8093C21.4131 36.7067 29.9398 36.9693 29.9398 37.8093C29.8331 41.6907 30.7184 42.832 32.9531 42.832C34.6691 42.832 35.4478 41.8853 35.4478 40.2947C35.4478 37.884 32.9171 36.4613 30.0024 34.8267C26.0571 32.612 21.4144 30.0053 21.4144 24.0213C21.4144 18.052 25.5198 14.0707 32.8491 14.0707C40.1784 14.0707 44.1798 17.992 44.1798 25.4507Z" fill="white"/>
</svg>
