<svg width="102" height="64" viewBox="0 0 102 64" fill="none" xmlns="http://www.w3.org/2000/svg">
<g clip-path="url(#clip0_53_1331)">
<mask id="mask0_53_1331" style="mask-type:luminance" maskUnits="userSpaceOnUse" x="-2" y="0" width="106" height="63">
<path d="M-1.36377 0H103.364V62.8364H-1.36377V0Z" fill="white"/>
</mask>
<g mask="url(#mask0_53_1331)">
<path fill-rule="evenodd" clip-rule="evenodd" d="M50.9999 0C37.0362 0 28.309 6.98182 24.818 20.9455C30.0544 13.9636 36.1635 11.3455 43.1453 13.0909C47.1288 14.0858 49.9759 16.9775 53.1274 20.1755C58.261 25.3867 64.2033 31.4182 77.1817 31.4182C91.1453 31.4182 99.8726 24.4364 103.364 10.4727C98.1271 17.4545 92.018 20.0727 85.0362 18.3273C81.0527 17.3324 78.2057 14.4407 75.0542 11.2427C69.9206 6.03151 63.9783 0 50.9999 0ZM24.818 31.4182C10.8544 31.4182 2.12714 38.4 -1.36377 52.3636C3.87259 45.3818 9.98168 42.7636 16.9635 44.5091C20.947 45.5059 23.794 48.3956 26.9456 51.5937C32.0791 56.8048 38.0214 62.8364 50.9999 62.8364C64.9635 62.8364 73.6908 55.8545 77.1817 41.8909C71.9453 48.8727 65.8362 51.4909 58.8544 49.7455C54.8709 48.7505 52.0239 45.8589 48.8723 42.6608C43.7388 37.4497 37.7965 31.4182 24.818 31.4182Z" fill="#38BDF8"/>
</g>
</g>
<defs>
<clipPath id="clip0_53_1331">
<rect width="104.727" height="64" fill="white" transform="translate(-1.36377)"/>
</clipPath>
</defs>
</svg>
